<svg xmlns="http://www.w3.org/2000/svg" width="16px" height="16px" viewBox="0 0 2048 2048">
	<circle fill-opacity="0.6" r="896" cx="1024" cy="1024" fill="#40b6e0"></circle>
	<g transform="scale(0.68)"><path fill-opacity="0.7" transform="translate(308.25, 2170.4) rotate(180) scale(-1, 1)" fill="#231f20" d="M614 1438v-318h418v-143h-418v-608q0 -124 47 -173t164 -49h207v-147h-225q-207 0 -292 83t-85 286v608h-299v143h299v318h184z"></path><path fill-opacity="0.7" transform="translate(1541.25, 2170.4) rotate(180) scale(-1, 1)" fill="#231f20" d="M1120 652v-90h-797v-6q-8 -229 87.5 -329t269.5 -100q88 0 184 28t205 85v-183q-105 -43 -202.5 -64.5t-188.5 -21.5q-261 0 -408 156.5t-147 431.5q0 268 144 428t384 160q214 0 337.5 -145t131.5 -350zM936 706q-12 116 -84.5 200.5t-208.5 84.5q-133 0 -219 -88 t-94 -198z"></path></g>
</svg>